<svg width="45" height="49" viewBox="0 0 45 49" fill="none" xmlns="http://www.w3.org/2000/svg">
<circle cx="22.5" cy="26.5" r="22.5" fill="#181C2E"/>
<path d="M17 16.9998L14 20.9998V34.9998C14 35.5302 14.2107 36.0389 14.5858 36.414C14.9609 36.789 15.4696 36.9998 16 36.9998H30C30.5304 36.9998 31.0391 36.789 31.4142 36.414C31.7893 36.0389 32 35.5302 32 34.9998V20.9998L29 16.9998H17Z" stroke="white" stroke-width="2" stroke-linecap="round" stroke-linejoin="round"/>
<path d="M14 20.9998H32" stroke="white" stroke-width="2" stroke-linecap="round" stroke-linejoin="round"/>
<path d="M27 24.9998C27 26.0606 26.5786 27.078 25.8284 27.8282C25.0783 28.5783 24.0609 28.9998 23 28.9998C21.9391 28.9998 20.9217 28.5783 20.1716 27.8282C19.4214 27.078 19 26.0606 19 24.9998" stroke="white" stroke-width="2" stroke-linecap="round" stroke-linejoin="round"/>
<circle cx="32.5" cy="12.5" r="12.5" fill="#FF7622"/>
<path d="M32.2812 7.29688C33 7.29688 33.625 7.43229 34.1562 7.70312C34.6979 7.96354 35.1198 8.33333 35.4219 8.8125C35.724 9.28125 35.875 9.83333 35.875 10.4688C35.875 10.9896 35.7917 11.4688 35.625 11.9062C35.4688 12.3333 35.2396 12.7604 34.9375 13.1875C34.6354 13.6042 34.2656 14.0521 33.8281 14.5312C33.401 15.0104 32.9115 15.5573 32.3594 16.1719H35.9531V18H29.125V17.125C30.125 16.0417 30.9635 15.1302 31.6406 14.3906C32.3281 13.6406 32.8438 13 33.1875 12.4688C33.5417 11.9271 33.7188 11.4479 33.7188 11.0312C33.7188 10.5 33.5417 10.0885 33.1875 9.79688C32.8438 9.49479 32.4115 9.34375 31.8906 9.34375C31.4115 9.34375 30.9427 9.46875 30.4844 9.71875C30.026 9.96875 29.651 10.25 29.3594 10.5625V8.34375C29.6719 8.07292 30.0885 7.83333 30.6094 7.625C31.1302 7.40625 31.6875 7.29688 32.2812 7.29688Z" fill="white"/>
</svg>
